<svg width="1635" height="1329" viewBox="0 0 1635 1329" fill="none" xmlns="http://www.w3.org/2000/svg">
<path d="M0 -502V1101.41C4.34076 1112.56 8.30756 1116.83 13.1049 1127.75C24.3838 1153.36 41.3081 1172.23 65.6745 1182.39C81.9286 1189.16 97.9871 1196.54 113.951 1204.13C148.321 1220.48 184.256 1225.8 221.337 1225.05C292.746 1223.62 364.167 1222.87 435.582 1221.59C460.511 1221.13 485.441 1220.13 510.359 1218.99C576.556 1215.94 642.444 1215.84 707.289 1235.11C725.618 1240.57 744.867 1238.46 763.499 1233.68C781.105 1229.18 795.397 1219.42 805.246 1201.7C813.412 1187.01 822.254 1172.73 832.72 1159.86C860.472 1125.76 891.8 1118.83 928.768 1139.19C960.031 1156.41 983.52 1183.77 1004.71 1213.9C1009.53 1220.73 1014.07 1227.8 1018.62 1234.87L1018.88 1235.28C1065.11 1307.1 1128.52 1335.33 1206.12 1327.83C1240.67 1324.48 1274.09 1316.79 1304.59 1297.27C1329.24 1281.49 1348.34 1260.07 1359.03 1230.07C1361.54 1223.03 1364.95 1216.39 1367.44 1209.34C1380.27 1172.98 1404.86 1157.04 1438.95 1156.83C1469.6 1156.64 1500.13 1154.68 1530.05 1146.49C1569.44 1135.7 1602.4 1113.28 1628.38 1078.28C1629.79 1076.37 1633.42 1072.71 1635 1070.96V-502H0Z" fill="#EC4039"/>
</svg>
